# xmcd CD database file
#
# Track frame offsets:
#	150
#	10825
#	21227
#	35936
#	50112
#	62061
#	74832
#	87652
#	101188
#	115242
#	127196
#	140904
#	153848
#	167701
#	182163
#	195131
#	206774
#	218171
#	229479
#	242197
#	253447
#	266158
#	278552
#	290506
#	303682
#
# Disc length: 4205 seconds
#
# Revision: 1
# Processed by: cddbd v1.4PL0 Copyright (c) Steve Scherf et al.
# Submitted via: CDex 1.50Beta7
#
DISCID=9d106b19
DTITLE=Freddy King - The Very Best of Freddy King, Vol. 1 (1960-1961)
DYEAR=2002
DGENRE=Blues
TTITLE0=You Know That You Love Me
TTITLE1=See See Baby
TTITLE2=You've Got to Love Her with a Feeling
TTITLE3=Have You Ever Loved a Woman¿
TTITLE4=Hide Away
TTITLE5=I Love That Woman
TTITLE6=Lonesome Whistle Blues
TTITLE7=If You Believe (In What You Do)
TTITLE8=It's Too Bad (Things are Going So Tough)
TTITLE9=I'm Tore Down
TTITLE10=Onion Rings
TTITLE11=Sen-Sa-Shun
TTITLE12=Side Tracked
TTITLE13=The Stumble
TTITLE14=San-Ho-Say
TTITLE15=Wash Out
TTITLE16=Just Pickin'
TTITLE17=Heads Up
TTITLE18=Christmas Tears
TTITLE19=Let Me Be (Stay Away from Me)
TTITLE20=Takin' Care of Business
TTITLE21=You Mean, Mean Woman (How Can Your Love be True¿)
TTITLE22=I Hear Jingle Bells
TTITLE23=In the Open
TTITLE24=Out Front
EXTD=YEAR: 2002
EXTT0=
EXTT1=
EXTT2=
EXTT3=
EXTT4=
EXTT5=
EXTT6=
EXTT7=
EXTT8=
EXTT9=
EXTT10=
EXTT11=
EXTT12=
EXTT13=
EXTT14=
EXTT15=
EXTT16=
EXTT17=
EXTT18=
EXTT19=
EXTT20=
EXTT21=
EXTT22=
EXTT23=
EXTT24=
PLAYORDER=
